<?xml version="1.0" encoding="UTF-8"?><svg xmlns="http://www.w3.org/2000/svg" width="200" height="200" viewBox="0 0 237.95 237.95" shape-rendering="geometricPrecision" text-rendering="geometricPrecision" image-rendering="optimizeQuality" fill-rule="evenodd" clip-rule="evenodd"><defs><style>.fil1{fill:#fefefe}.fil2{fill:#114e9e}.fil0,.fil3{fill:#164898}.fil3{fill-rule:nonzero}</style></defs><g id="图层_x0020_1"><g id="_459182416"><path class="fil0" d="M118.97 237.95c65.53 0 118.98-53.45 118.98-118.98C237.95 53.45 184.5 0 118.97 0 53.45 0 0 53.45 0 118.97c0 65.53 53.45 118.98 118.97 118.98z"/><path class="fil1" d="M119.29 232.43c62.57 0 113.6-51.03 113.6-113.6 0-62.57-51.03-113.6-113.6-113.6-62.57 0-113.6 51.03-113.6 113.6 0 62.57 51.03 113.6 113.6 113.6z"/><path class="fil0" d="M119.29 33.96c46.87 0 84.88 38.01 84.88 84.87 0 46.87-38.01 84.88-84.88 84.88s-84.87-38.01-84.87-84.88c0-46.86 38-84.87 84.87-84.87z"/><path class="fil1" d="M119.57 199.98c44.85 0 81.43-36.58 81.43-81.43 0-44.85-36.58-81.42-81.43-81.42-44.85 0-81.43 36.57-81.43 81.42s36.58 81.43 81.43 81.43z"/><path class="fil2" d="M119.57 197.77c43.73 0 79.39-35.67 79.39-79.39 0-43.73-35.66-79.4-79.39-79.4-43.73 0-79.39 35.67-79.39 79.4 0 43.72 35.66 79.39 79.39 79.39z"/><path class="fil1" d="M119.09 40.2L68.82 155.57l50.27-25.96 50.32 25.97zM65.35 157.82c.03.4 1.13 7.22 3.45 7.92.28.09 5 .47 5.79.5l32.92 2.96c.59.11 3.53-.03 4.93 2.25 0 0 .07-6.45-3.66-7.97 0 0-1.27-.81-4.76-.91l-33.22-2.68s-3.66.04-5.24-1.85l-.21-.22zM76.3 169.69c.09.01 1.08 1.59 4.35 1.91l25.73 2.26c2.53.28 4.81.51 5.86 3.27.24.67.55 1.86.8 4.36-.29-.31-1.19-1.65-2.58-1.8-10.07-1.02-20.14-2.11-30.21-3.19l-1.57-.18c-1.38-.63-1.93-4.53-2.27-5.95l-.11-.68zM85.85 180.41s.59 1.64 3.47 1.85l20.8 2.07s1.92.16 3.06 1.74c.11.16.74.9 1.01 5.08 0 0-.81-1.42-2.66-1.62l-22.66-2.64c-.61-.06-1.04-.14-1.27-.26 0 0-.83-.57-1.23-2.54l-.41-1.97-.09-.85.09.85-.09-.85-.02-.86zM123.71 191.22s.2-3.55.84-4.82c0 0 .52-1.81 3.58-2.17 0 0 20.59-1.87 21.22-1.98 0 0 1.84-.31 2.76-1.68 0 0-.27 5.27-1.76 6.18 0 0-1.29.27-4.07.53l-13.04 1.55-6.47.62c-.89.11-1.42.15-2.35.92l-.41.49-.3.36zM125.03 181.52s-.31-4.93 2.32-6.62c0 0 .35-.78 5.31-1.16 4.95-.38 19.8-1.85 22.97-1.97.69-.07 4.37-.02 6.1-2.3 0 0-.54 5.91-2.49 6.9 0 0-6.61.76-7.91.89l-12.73 1.39-8.72.86s-2.93.05-3.69.72c0 0-.4.33-.64.64l-.32.4-.2.25zM125.5 171.51s1.13-1.77 3.34-2.03l9.44-.81 18.33-1.8 12.66-1.22s1.62-.22 2.77-4.91l.66-3.06s-1.49 2.27-5 2.15l-18.54 1.43-16.82 1.36s-4.1.01-5.77 3.47c0 0-.64 1.43-.96 3.3-.1.52-.06.66-.1.99v.39l-.01.74z"/><path class="fil3" d="M18.7 124.61l-1.92.06c-.03-.1-.04-.13 0-.1a8.69 8.69 0 0 1-.26-1.71c-.02-1.68 1.05-2.57 3.21-2.68 2.2-.04 3.35.77 3.44 2.45.04 1.21-.45 1.84-1.47 1.87l.08 2.07c1.97-.04 2.9-1.48 2.8-4.34-.29-2.78-1.93-4.15-4.92-4.12-2.92.17-4.41 1.65-4.48 4.45.03.85.09 1.54.17 2.06.03.69.15 1.36.37 2.01l4.57-.16-.12-3.69-1.53.05.06 1.78zM25.41 133.44l-4.93.69c-1.07.18-1.82.16-2.25-.08-.5-.23-.8-.72-.9-1.47-.11-.75.04-1.31.45-1.7.35-.35 1.07-.58 2.14-.7l4.93-.69-.27-1.96-5.66.8c-2.24.38-3.21 1.86-2.91 4.44.42 2.49 1.75 3.63 4.01 3.41l5.66-.79-.27-1.95zM26.34 138.72l-.37-1.93-8.95 1.74.38 1.93zM19.24 147.98l1.49-.37-.96-3.82 7.36-1.84-.46-1.86-8.84 2.2zM28.88 148.39l-.58-1.89-8.71 2.67.58 1.88zM23.43 160.55l8.62-2.97-.6-1.72-6.75 2.32-.06-.03 5.68-5.6-.95-2.75-8.62 2.97.6 1.72 7.12-2.45.06.03-6.01 5.82zM37.47 167.69l-4.39 2.34c-.94.53-1.66.76-2.14.69-.55-.05-1-.4-1.35-1.07-.36-.67-.41-1.25-.16-1.76.22-.44.8-.91 1.78-1.39l4.39-2.33-.93-1.74-5.04 2.68c-1.97 1.12-2.38 2.84-1.22 5.17 1.25 2.2 2.9 2.81 4.94 1.83l5.05-2.68-.93-1.74zM36.14 182.32l7.64-4.96-1-1.53-5.98 3.89-.07-.01 4.15-6.81-1.58-2.44-7.65 4.96 1 1.53 6.32-4.1.06.01-4.42 7.11zM45.67 179.36l-1.24-1.54-7.08 5.74 1.24 1.53zM41.47 188.51l1.42 1.57 9.01-3.6-1.29-1.43-6.92 3.05-.04-.03 3.77-6.57-1.42-1.58zM46.01 193.27l4.58 4.27 1.04-1.12-3.13-2.92 1.64-1.76 2.81 2.62 1.04-1.12-2.81-2.62 1.45-1.55 3.02 2.82 1.05-1.11-4.47-4.17zM58.31 194.04l1.25 1.04c.72.57.83 1.15.33 1.75-.55.66-1.18.69-1.88.1l-1.25-1.05 1.55-1.84zm-2.53 3.01l1.58 1.33c.38.32.34.8-.11 1.45-.53.67-.97 1.38-1.32 2.1l1.62 1.37c.06-.43.4-1.09 1.02-1.98.04-.05.09-.13.15-.26.79-1.05.81-1.91.05-2.59l.03-.04c1.12.56 2.08.39 2.86-.49.97-1.2.67-2.48-.89-3.84l-2.98-2.5-5.86 6.98 1.51 1.27 2.34-2.8zM68.01 202.48c.94-1.5.63-2.87-.93-4.08-2.07-1.28-3.68-1.19-4.83.29-.7 1-.36 2.26 1.02 3.78.03.07.11.16.22.28.81.85 1.04 1.53.68 2.04-.46.6-1.18.57-2.17-.08-.8-.64-.89-1.39-.29-2.25l-1.61-1.13c-1.18 1.63-.8 3.12 1.14 4.47 2.13 1.42 3.76 1.35 4.88-.19.74-1 .36-2.29-1.14-3.86-.09-.11-.15-.17-.18-.19-.87-.81-1.08-1.48-.63-2.01.44-.57 1.07-.61 1.89-.12.78.55.92 1.21.42 1.98l1.53 1.07zM72.33 201.93l-1.67-1.04-4.83 7.72 1.68 1.05zM71.8 203.55l2.44 1.19-3.33 6.81 1.77.87 3.33-6.82 2.43 1.19.67-1.37-6.64-3.24zM78.52 215.1l1.75.78 1.2-2.69 5.3-4.39-1.8-.8-3.46 3.04-.01-4.58-2.11-.94.33 6.88zM92.88 220.17c2.71.66 4.5-.46 5.38-3.35.71-3.04-.27-4.95-2.95-5.74-2.74-.67-4.57.49-5.47 3.48-.72 2.93.29 4.8 3.04 5.61zm2.06-7.71c1.46.39 1.9 1.66 1.32 3.82-.57 2.13-1.58 2.99-3.04 2.6-1.49-.4-1.95-1.66-1.38-3.78.57-2.16 1.61-3.04 3.1-2.64zM100.64 221.78l.61-3.85 3.65.58.24-1.51-3.65-.58.34-2.14 3.89.62.24-1.51-5.79-.92-1.43 9.01zM112.08 223.08l.82-1.87 3.59.25.55 1.96 1.97.14-2.56-9.31-2.31-.16-3.93 8.86 1.87.13zm1.42-3.36l1.59-3.79h.05l.96 3.97-2.6-.18zM120.09 223.53l6.25-.32-.08-1.53-4.28.22-.13-2.41 3.84-.2-.08-1.52-3.84.2-.11-2.11 4.13-.22-.08-1.53-6.09.32zM129.07 215.33l1.62-.17c.91-.13 1.4.2 1.49.98.08.85-.33 1.33-1.24 1.42l-1.62.17-.25-2.4zm.41 3.92l2.06-.21c.49-.06.81.31.95 1.08.13.85.33 1.65.61 2.42l2.1-.23c-.26-.33-.5-1.03-.72-2.1 0-.07-.03-.16-.08-.29-.2-1.3-.81-1.91-1.82-1.84l-.01-.05c1.18-.42 1.72-1.22 1.63-2.4-.19-1.53-1.32-2.2-3.38-2.02l-3.87.41.95 9.06 1.96-.2-.38-3.63zM140.65 221.34c2.72-.65 3.81-2.46 3.28-5.43-.75-3.04-2.49-4.29-5.24-3.78-2.75.66-3.84 2.52-3.29 5.59.69 2.94 2.44 4.15 5.25 3.62zm-1.66-7.81c1.48-.31 2.45.62 2.91 2.81.46 2.15-.05 3.38-1.53 3.7-1.51.32-2.49-.6-2.95-2.75-.46-2.19.06-3.44 1.57-3.76zM150.87 211.61c-.64-1.65-1.92-2.22-3.82-1.71-2.27.88-3.16 2.22-2.68 4.03.38 1.16 1.59 1.64 3.64 1.46.07.01.19.01.35-.01 1.17-.14 1.85.09 2.04.69.2.72-.25 1.29-1.37 1.68-.99.25-1.65-.12-1.97-1.12l-1.87.61c.59 1.92 2 2.51 4.25 1.78 2.42-.86 3.35-2.19 2.79-4.02-.36-1.19-1.61-1.67-3.77-1.41-.14.01-.22.02-.25.03-1.18.21-1.84-.03-1.99-.7-.2-.7.15-1.23 1.04-1.58.9-.3 1.51-.01 1.83.85l1.78-.58zM156.51 216.65l-1.37-3.22 1.32-.56c1.83-.89 2.44-2.16 1.8-3.82-.71-1.76-2.21-2.14-4.5-1.14l-2.58 1.1 3.56 8.39 1.77-.75zm-2.96-6.99c.12-.05.3-.12.54-.23 1.16-.63 1.91-.49 2.27.43.41.9-.01 1.54-1.27 1.93-.24.1-.42.18-.54.23l-1-2.36zM163.04 213.76l-.22-2.03 3.23-1.57 1.46 1.42 1.78-.86-6.88-6.79-2.08 1.01 1.03 9.64 1.68-.82zm-.45-3.62l-.51-4.08.05-.02 2.81 2.96-2.35 1.14zM173.23 201.09c-1.21-1.68-2.85-1.9-4.93-.64-2.01 1.37-2.24 3.39-.68 6.07 1.65 2.52 3.54 3.16 5.67 1.91 2.07-1.33 2.61-2.87 1.64-4.62l-1.76 1.09c.56.97.37 1.77-.59 2.4-.95.52-2.02-.11-3.21-1.88-1.09-1.87-1.2-3.13-.31-3.76.96-.56 1.77-.38 2.41.53l1.76-1.1zM177.59 205.69l4.99-3.77-.92-1.22-3.42 2.58-1.45-1.93 3.07-2.31-.92-1.22-3.07 2.31-1.28-1.69 3.31-2.49-.92-1.22-4.88 3.68zM182.18 192.57l1.98-1.85 5.17 5.55 1.44-1.34-5.17-5.55 1.98-1.85-1.04-1.11-5.4 5.03zM193.55 192.28l4.18-4.64-1.13-1.03-2.87 3.19-1.79-1.62 2.57-2.85-1.14-1.02-2.57 2.85-1.57-1.42 2.77-3.07-1.14-1.02-4.08 4.54zM198.44 176.9c-1.73-1.14-3.34-.75-4.83 1.17-1.39 2-.88 3.97 1.53 5.91 2.45 1.76 4.45 1.68 5.98-.25 1.46-1.98 1.42-3.62-.12-4.9l-1.25 1.65c.87.7.97 1.51.31 2.45-.7.83-1.93.63-3.67-.61-1.7-1.35-2.24-2.48-1.64-3.39.7-.87 1.51-1 2.44-.38l1.25-1.65zM205.34 177.81l-3.3-2.23 1.95-2.9 3.31 2.24 1.07-1.6-7.55-5.09-1.1 1.63 2.98 2.01-1.93 2.86-2.98-2.01-1.08 1.59 7.56 5.1zM213.14 164.46l-8.05-4.28-.86 1.61 6.31 3.36.02.06-7.97-.33-1.36 2.57 8.04 4.28.86-1.61-6.65-3.54-.02-.07 8.36.43zM215.52 159.02c1.03-2.6.17-4.53-2.57-5.8-2.91-1.13-4.94-.42-6.09 2.12-1.04 2.63-.15 4.6 2.68 5.91 2.81 1.12 4.8.38 5.98-2.23zm-7.35-3.12c.59-1.39 1.92-1.65 3.97-.78 2.03.86 2.74 1.99 2.15 3.38-.6 1.42-1.91 1.7-3.94.84-2.06-.87-2.78-2.02-2.18-3.44zM219.35 147.71l-1.46-.45-1.15 3.77-7.26-2.21-.56 1.83 8.72 2.67zM220.8 142.48c.47-2.75-.77-4.46-3.72-5.14-3.08-.5-4.92.62-5.52 3.34-.47 2.79.81 4.53 3.86 5.22 2.98.51 4.77-.63 5.38-3.42zm-7.83-1.52c.29-1.49 1.53-2.01 3.72-1.59 2.16.42 3.09 1.37 2.81 2.85-.3 1.52-1.53 2.07-3.69 1.65-2.19-.43-3.14-1.4-2.84-2.91zM219.28 130.31l1.91.17c.03.1.02.13-.01.1.08.66.09 1.24.05 1.73-.18 1.67-1.35 2.42-3.51 2.27-2.19-.23-3.23-1.18-3.11-2.85.1-1.21.66-1.77 1.68-1.68l.18-2.06c-1.96-.21-3.07 1.11-3.32 3.96-.04 2.8 1.42 4.36 4.39 4.69 2.92.19 4.58-1.1 4.99-3.87.07-.85.1-1.54.08-2.07.06-.69.02-1.36-.12-2.04l-4.56-.4-.33 3.69 1.52.13.16-1.77zM223.17 124.34l.1-1.92-2.95-.15-5.99-3.37-.1 1.96 4.08 2.14-4.28 1.65-.12 2.31 6.31-2.77z"/><path class="fil2" d="M17.89 106.74c-.39-1.19-.63-1.86-1.42-3.09-.2-.35-.17-.2-1.4-.82-7.05-3.15-6.39-2.89-6.52-4.39.02-.69.73-.78 1.24-.77 1.14.06 2.52-.11 3.55.35.08.03-.6.25-.1.73.19.18.74.54 1.01.44 0 0 .14-.36-.17-.73-.44-.55-.73-.36-.51-.51.19-.15 2.21-.08 2.4-.07.3.07 1.38-.11 2.23 2.42.11.43.57.39 1.05.2.69-.09 1.59.66 1.68 1.07 1.04.86 1.23 1.23 1.06.29-2.41-3.74.14-.89 2.98.9.7.49 1.64.72 1.93.78 1.51.27 2.06.43 5.81.98.36-.17 1.22.1 1.55 1.04.02 1.15-.93 2.39-2.43 2.62-1.68-.57-2.88-1.11-3.86-1.47-1.41-.74-.89.33.4 1.93 1.78 1.42 2.47 2.36 1.61 4.03-1.25 1.83-1.38.65-2.48-.75-1.98-1.89-3.95-3.78-5.93-5.66-1.03-1.46-1.64-1.99-1.12.35-.28.6-.34 2.27-1.23 2.25-.4-.48-1.12-1.82-1.33-2.12z"/><path class="fil2" d="M11.81 88.85c1.9 1.65 3.1 3.66 6.26 5.33.67.63 1.17 1.64 1.66 2.51.68.86 1.15.07 1.02-.22-.65-1.47-.2-1.32.83-.85.72.32.41.95.77 1.54.69 1.43.61 3.35 1.79 2.9 1.66-.49.28-2.35.21-3.3-.02-.06.09-.96.99.11.9 1.08-1.21-1.95.57-.63 1.38.58 1.27.44 1.79 1.82.42 2.11-1.17-.28-1.87-.57-.07.44 1.16 1.73 1.63 2.19 1.22 1.54 1.99 1.2 1.84-.64-.05-1.41-.72-1.73.17-1.42 1.5.6 1.03.58 1.75 1.99 2.32 4.4.66 5.33 2.52 4.25.99-.43.63-1.92.37-3.48.01-3.57.25-6.19.91-8.03.43-1.81-.9-1.98-1.39-2.67-.36.64-1.01.8-1.29 1.74-.45 1.24-.88 1.83-.89 3.46.05.89.01.12-.96-.26-.91-.73-2.11.2-2.24-1.94-.54-2.1-1.35-2.59-2.26-.97-1.21.8-1.96 1.64-2.49-.37-2.47-8.17-2.57-1.55-2.59-1.52.36 1.41.33.91.69 2.31-.67.48-.9-.29-1.43-.82-.87-2.06-1.58-2.91-2.78-3.2-1.23-.6-2.82.19-2.83.37 0 .19 2.12.04 2.72 1.5.15.64-.06.53-.81.26-1.31-.23-1.48-.81-2.53-1.32.34-.43.39-.39-1.12-.66-.12-.02-.08-.12-.38-.26-.2.06-.79.1-.63.85zM25.02 58.22c1.47 2.44 2.81 4.76 4.72 6.62-.39 2.3.39 3.41.45 5.44-.08 1.72-.19 1.52 1.44.78.55-.75.44-1.22.93-2.01.35-.76.22-1.15 1.36.82.92 2.36 2.09 3.98 3.2 6.16.62 1.45.69 2.13 1.65 3.08 1.07-.36 1.96-.89 2.34-1.63.01-.52-.08-1.11-.16-1.61-.11-.71-.5-1.11.11-1.2.23-.02.33.07.51.16.95.54 1.94 1.5 2.58 1.4.14.07 4.06-1.79.12-3.5-1.29-.92-4.31-2.15-4.74-3.42-.55-.85-1.79-4.08-2.55-4.44-.2 1.16.78 3.32-.14 2.44-.51-.84-1.44-1.54-1.41-2.19.03-.53.07-.58-.5-.49-1.48.55-.38-.51-.81-1.07.09-1.28-.83-3.02-2.09-4.31-2.07-1.61-2.97-.29-4.01-.33-1.01-.19-2.11-2.2-3-.7zM36.9 71.24c.11-.07.8.46 1.24 1.34.28.66.41 2.05-.38 2.45-.26-.91-.8-2.68-.86-3.79zm-8.28-11.68c.69-.16 1.25.03 1.94.58.34.67.03 1.27-.46 1.2-.51.1-1.46-1.55-1.48-1.78z"/><path class="fil2" d="M29.75 49.5c-.17 2.06 3.26 6.24 6.29 8.55.35.28.34 1.58.32 2.8-.09.79.19 1.75.32 2.51.55-.14 1.11-.62 1.34-1.04.85-1.32 1.22-1.11 1.26-1.4.25 1.4.73 1.58 1.11 3.61.37 2 .63 2.77.33 4.04-.46 1.9-.12 1.68 1.46.71.67-.41 1.22-.7 1.24-1.21-.16-2.08-.14-2.05-.45-2.97-.49-2.33 0-1.67.78-1.06.85.7 1.63 1.39 2.88 2.21 1.8 1.27-.34 2.48.09 2.49.94.04 1.79-.21 2.64-.28.67-.04 1.75-.93 2.16-2.05.54-1.39-1.49-3.17-4.84-4.75-.54-.41-1.44-.86-2.03-1.2.53-.75.35-.14.92-.75 1.36-1.16 2.28-1.48 2.62-1.68 2.29-.58 3.7-1.82 3.18-3.44-.88-.08-.93-.69-1.76-.54-5.32.7-4.5 2.74-6.26 4.13-.09.29 0 .56-.26.82.58.02 1.48-.53 2.13-.13-.04 1.05-.16.62-.88 1.45-.78-.45-1.6-.87-2.24-1.93-.86-.97-1.11-.86-1.98-.78-.78-1.08-.42-3.56-.64-4.82-.27-1.59-.17-1.68-.93-1.92-.45-.73-1.55-.76-2.71-.37.22.48 1.52-.95 1.25 4.28-.02.53-.57-.17-.76-.42-1.09-1.28-3.51-2.43-3.08-3.34-1.62-1.29-2.87-2.06-3.5-1.52zM101.13 14.44c-.93.35-3.29.26-3.6.03-.32-.22 1.02-1.23 1.7-2.45 1.38-2.94 4.93-3.66 6.46-5.22 1.15-1.17 3.85-1.19 2.67 2.2-1.07 1.35-2.68 2.36-2.39 3.68.36 1.6-.35 3.26.29 2.86.92-.7 3.27-1.98 3.94-2.88.38-.49.41-.22.26-.71.37-.21.54.12.84-.01.73-.3 2.37 1.97 1.49 2.86-1.07 1.52-4.11 2.71-5.7 4.65-.87 1.52-.86 2.09-1.11 4.21-.12 2.34-1.54 4.18-2.15 5.81-1.05 1.86-.52 1.73-2.21 3.35-5.53 3.29-8.02 3.59-4.12.48.85-.64 2.84-3.09 4.37-9.76.18-1.24-.03-.81-2.24.86-2.33 1.69-3.56-.56-3.72-1.51-.04-.22.59-.07.89-.76.35-.75 1.17-2.08 1.95-2.79.31.35-.89 2.97 2.36-.24.1-.14 1.42-.66 1.26-2.45-.02-.8.12-.66.1-1.45-.03-.77-.53-.85-.77-.88-.14.06-.28-.23-.57.12z"/><path class="fil2" d="M107.65 27.01c-3.15-2.19.89-1.12 2.85-1.07 2.68-.11 3.24 1.05 4.73 1.85.26.14.45.18.66.37 1.17 1.08 1.6 2.58 1.47 3.31-.45 1.54-2.19.89-3.7.46-.8-.43-1.38-.93-2-1.16-1.05-.22-1.04-.43-2.09-1.2.28-.34 1.97.14-.68-1.37-.66-.36-.71-.63-1.24-1.19zM144.28 20.12c-1.45.74-4.79 1.11-5.21.24-.83-1.17-2.52-2.79 1.55-3.73 3.08-1.05 7.12-2.31 9.74-1.74 1.74.88 2.31 2.59 2.36 2.99-.18 1.03-1.28 1.68-1.84 2.39-2.3 4.96-5.81 5.9-7.22 5.83-1.09.67-2.19.53.39.58 2.52.16 2.1-.21 5.14.57 1.22.39 2.63 1.5 3.04 3.05.06.17.43.41.94 1.32.03.34-1.07.71-1.17.7-1.24-.23-1.52-.3-2.2-.36-6.35-2.1-9.56-2-10.81-2.14-2.63-.29-5.39.01-7.23-.21-1.89-.22-2.36-1.39-2.24-1.69.55.02.71-1.03 1.51-1.28 1.28-.26 5.02.02 8.08-1.32 2.08-1.04 2.82-1.6 5.02-4.12.65-.75.59-.89.15-1.08z"/><path class="fil1" d="M74.45 19.01c-.7.01-.66-.1-.56.74.1.61-.11.37.91 1.37.09.11.27.25.31-.43 0-1.07.02-.48-.11-1.15-.13-.47-.25-.44-.55-.53z"/><path class="fil2" d="M179.91 30.87c-.78-.77-2.42-2.65-.35-3.53 1.33-.27.96.85 1.44 1.27.74.98.49.32 1.04.06.81-.4 1.57-.87 2.66-.33.68.57-.42 1.41.24 1.52-.13.28-.37.44-.56.6-.56.59-.74.78-1.17 1.28-.85.89.87.82 1.49.55 2.83-1.65 1.49-2.11 1-2.21 1.56 0 1.22-.45 1.85-.71 2.26.33 1.72 1.48 1.49 1.76-.49.67-1.12 1.14-1.7 1.71-.05.95 1.13-.62 2.11-.45 1.15-.13 3 2.38.69 2.2-1.33-.13-1.59.22-2.88.17-1.27-.16 1.34.83 2.25 1.37 2.18 1.2 3.29 2.42 3.63 2.96.07.67-.39 1.36-1 1.36-.98-.56-3.01-1.62-3.94-2.23-2.42-1.49-1.44-.59-2.01-.61-.63.31-.77-.06-1.29.05.11.42.06.94.05 1.34-.96.3-1.35.02-2.46-.2-1.22-.1-1.64.23-1.6.57.51.18 1.22-.1 1.6.11 2.43 1.31-.67 1.4-1.3 1.52-.01.31.15.87.47 1.01.23.1.86.56.24 1.01-.18.13-.66.37-.66.37-1.18.25-2.26.2-3.67.15-2.38 3.46-5.52 8.5-8.41 5.93-.74-1.8-.53-1.75-.61-4.1.8.11.9 2.06 1.77 1.5.95-.61 1.9-1.96 2.64-2.86.75-1.33-1.35.23-1.93.25-1.67.63-5.24.1-4.65-2.27.23-.6 2.11.03 3.64-.27 1.27.01 2.09.57 3.31.9.54.14.59.29.83-.12-1.1-.35-2.55-1.13-3.13-1.8-.88-2.13 1.8-.74 2.79-.54 1.5.47 1.69.35 2.07-.4-.93-.1-4.34-1.02-3.41-1.76.71-1.36 1.1-.63 3.06.04 1.71.35 1.75.13.71-.23-2.59-.59-3.96-3.18-.79-2.33.73.03 1.87 1.29 1.38.27-.67-.25-1.11-1.45-.51-2.37.52-.24 1.9.34 1.2-.18-1.99-.69-6.19-2.78-6.59-3.15 0-.41.28-1.56 7.71 1.03 1.54.4 1.99.69 1.26-.21zm-.22 9.89c-.09.05-.65-.09-.7.51-.04.61.97.54 1.26.26.28-.29.25-.87-.56-.77zm.6-1.89c-.33-.01-.36.14-.38.37-.02.22.78.41.71-.17-.09-.14.01-.19-.33-.2zm.87-3.82c1.52.74-2.46.08-1.25 1.02.52.25 1.85.14 2.64.1 2.61-.03 2.51.3-.57-1.17-1.03-.4-2.05-1-3.12-1.28-.69.93.34 1.05 1.65 1.33.23-.02.41.03.65 0z"/><path class="fil2" d="M178.16 45.71c1.89.56 3.73 3.43 4.15 5.81.1 1.3-1.18 2.11-1.96 1.65-.67-.22-1.8-2.09-2.66-4.43-.24-.47-.58-.99.09-.47.37-.97-.03-1.34.07-2.07.04-.15.2-.4.31-.49zM199.72 65.63c.41.88 1.24 2.25 2.37 2.9 1.49.95 2.95 1.96 1.53 1.74.46.47 2.11 2.06 3.25 1.79 1.03-1.1.14-1.56-.05-2.2-.48-.62-.29-1.14-1.44-1.85-.99-.73-1.98-1.39-2.88-1.97-.77-.43-1.81-.7-2.13-.65-.17.21-.42.22-.65.24z"/><path class="fil2" d="M212.21 62.99c.28.1 1.96.44 2.44.28.12-.04.38-.09.5-.15.6-.26 1.52-1.08 1.15-2.41-.56-1.28-2.64-2.91-5.4-.79-.36.5-.92 1.64-1.28 2.69-.79.01-1.32-.04-2.13-.04-.84 0-.83-.56-1.18-.88-.39-.47-.06-.24.49-1.16-.16.23.27-.87 1.41-1.67 1.23-.83 1.73-1.51 2.81-1.19.21.87-1.19.51 1.26-.14.13-.57 1.04-.51.93-1.15-.44-1.36-6.38-2.81-8.95 3.97-.22.82-.22 1.54.23 2.36-.23-.23-.06.07-.01.12.65.66 2.58 2.16 2.8 2.26.14.07.33.19.32.24-.09.39-.06.35-.66-.12-.33-.25-2.09-1.65-2.39-1.87-.64-.45-1.46-1.14-2.05-1.47-.57-.37-.94-.48-1.42-.83.95.41 2.29 1.15 3.18 1.58.13.06.12 0 .08-.03-2.4-2.61-4.23-3.01-5.96-3.84-.89-.14-1.91-.55-2.2-.15.02.76.53 2.18 1.45 3.07 1.65.65 6.14 3.78 8.98 5.89 1.37 1.29 2.09 2 3.02 3.13.55.55.47.77.2.78-.24-.11-1.2-.39-1.85-.86.29.87 1.43 2.18 2.57 2.94.81.91 2.65-.58 1.94-1.91-1.15-1.77-2.19-3.02-3.44-4.41.1-.14.08-.55.26-.44.82.3.49 2.3 3.18 3.5 1.36-.11 1.35-.84 3.16-.51 1.03.14 1.97-.54 2.61-1.69.25-.88 1.51-3.05-2.19-4.11-.94-.42-2.75-.37-3.69-.79-.93-.37-.94.37-.54-.72.29-.46.78-.8.85-.91.79-.53 1.42-1.71 2.27-.47.33 1.1-.51.92-1.17 1.09-.53.24-3.1.59-1.58.81zm.45 1.71c1.2.18 3.01.66 3.55 1.77.22.46-.35 1.69-2.16 1.49-1.82-.2-1.57.11-2.25-.04-.68-.16-1.06-.63-.78-.7.83.68.42-.45 1.3.16 1.11-.81 1.36-.68 1.38-.18.83-.51.73-.94.3-1.34-1.99-1.11-1.75.3-3.39-.35-.91-.05-.16-.66.15-.83.61-.25 1.23-.13 1.9.02zm-4.03-1.3c-.04.35-.37.91-.63 1.03-1.07-.03-3.06-1.19-3.51-1.74.57.67 2.27 1.58 4.14.71zM194.99 65.9c1.69 1.08 4.36 2.46 5.81 3.74 2.46.77 1.77.19 2.47.83.35.76-.06.92-.11 1.38.84.71 2.03 1.94 2.64 2.78.41.95-.46 1.67-.73 1.9-.34.3-1.61-.54-1.9-.89-.02-.03-.03-.04-.03-.07.68.26.07-.17.01-.22-1.06-.79-.61-.9-1.66-1.48-1.18-.97-2.9 1.59-4.83 2.31-.96.15-3.35 1.19-4.15-2.09-.15-.63.54-3.64.85-4.04.31-.4.59-.45.59-.47 0-.02.09.49.26 1.12.44 1.32.5 1.65.94 1.81.45.15.92.24 1.59-.14.54-.28 1.9-.52 1.11-1.47-.64-.88-2.13-2.02-2.77-2.9-.74-.98-1.31-2.37-.09-2.1zM221.57 93.13c-.85-1.57-2.85-1.43-4.21-1.97-1.59-.52-1.55-1.92-.68-2.54 3.17-.67 6.19.85 9.34 3.53.54.76.67 1.41.08 1.86-.72.73-1.81 1.4-3.16 1.15-.91.06-1.61.03-2.41.32-1.31.53-3.45-.23-4.52-1.16-.02-.28-.17-.53-.51-.9-.5-.31-.56.07-1.17.39-1.1.08-2.17.01-3.27.08-1.6.16-2.71.54-4.31.7-.87.29-1.16.5-2.35.91-.97.32-2.97-.77-3.3-1.31.79-1.06 2.12-1.89 3.37-2.24 2.03-.41 3.83-.12 5.98-.31 1.06-.06 2.28-.34 3.41-.55.84.07 1.4.18 2.22 1.08.34.42 1.05 1.01 1.5 1.39.86.26 1.31.29 2.16.11.97-.15 2-.05 1.83-.54z"/><path class="fil2" d="M221 96.12c3.47.17 3.93 1.72 5.65 2.05.89-.57 1.68-.39 2.77.05.56.3.69 1.64-.03 2.36-.2.21-.44.49-.67.67-.61.5-1.77.23-1.19.89.24.06 2.55 2.53-.75 3.8-.46-.2-1.56.13-5.73-4.02-.37-.02-.19 1.46-.79 1.71-.61-.56-1.22-.98-1.83-1.54-.16.13-.44-.08-.35.67 1.3.77.74 2.56.11 3.01-1.23-.05-3.2-1.72-4.39-2.28-1.13-.74-1.05-.32-2.82-.44-3.99-.81-2.35-1.37-5.41-2.47-5.37-6.24.34-2.98 1.79-2.01 1.85 1.24 2.55 1.65 4.4 2.07-.5-.7-.69-1.07-.74-1.55-.07-4.45 2.49-1.26 3.83-.13.21-.4-.17-.69.05-1.09 1.32.01 2.38.2 3.91 1.47 2.21 1.83 6.48 5.41 5.22 2.46-1.28-1.7-1.99-1.51-4.58-3.27-.9.1-1.08-.38-1.35-1.23.32-.64.45-1.27 1.14-1.5 1.62-.2 1.24.21 1.76.32zm5.06 2.79c.16-.72-1.26-.87-1.75-1.09-.78-.04-.98-.34-1.55-.05-.56.29.66.5 1.06.86.67.38 1.39 1.35 1.78 1.24.39-.12.3-.23.46-.96zM214.78 105.07c-.3.6-1.61.81-2.35.87-.83-.04-.82-.23-1.66-.27-1.53.14-2.16 1.06-2.3 2.23.64 6.44 7.77 1.9 8.85.01.26-.06.7-.05.97-.11-.02-.01-.42.68-.43.68-1.18 2.05-.93 2.2-2.21 3.37-1.28.59-1.85 1.15-3.87 1.45-3.84.61-5.31-3.35-5.59-4.65-.53-4.07 1.83-4.67 2.86-4.7 2.17-.08 2.36.13 3.73.7.42.33 1.49.31 2 .42zM56.5 25.13c-.29.34-.72 6.79-.16 6.94.82-.47 1.22-.77 1.3-1.13 1.84-1.71 1.26-1.83 2.03-3.26.55-1.03.89-3.84-2.06-3.18-.25 0-.83.29-1.11.63zM56.94 35.04c.75 2.11 1.74 3.73 2.93 6.56.14.45-1.86 3.07-1.51 4.06.57 2.15 2.29 1.79 2.82 1.25.04-1.27.24-2.44.33-2.28.92 1.6 1.86 3.67 2.53 4.85.29.62 0 .45-.81.82 1.01.49 1.66 1.85 2.04 1.87 1.48.16 2.51-1.18 1.59-3.16-.11-.25-.75-1.69-1.21-2.36-.44-.65-.73-1.07 1.15.37 1.04.78 2.46 1.69 2.69 1.82.16.09.35.12.6.06 2.64-1.24-.41-3.83-.28-4.16.25-.03 2.41.64 1.99-.55-.09-.71-.61-1.28-.69-1.98.16-.79-.48-2.43-.62-3.2.04-3.13.36.6 1.43 2.09.05.08.53 1.48 3.34 1.95 1.89.06 10.41-4.1 5.67-10.11-4.02-4.22-7.36-2.61-8.82-2.86-.37-.06-.64.46-.82.43 2.64.83 3.23-.33 6.81 3.13.61.68 4.23 4.22-1.96 6.68-2.94 1.24-4.13-6.17-4.03-7.06.35-1.35-.43-1.51-1.06-1.19-.58.34-1.18 1.08-1.42 2.3-.07.37.25.16.14 1.26-.18.83-.39 3.05-.38 3.48.02.76.13.16-.03.9-.34-.12-.07-.79-.17-2.01 0 0 .02-1.55.04-4.01.01-.41-.14-.58.16-1.49.48-1.45 1.03-2.6.8-3.21-.24-2.12.96-2.82.87-4.23-.1-1.41-2.46-.9-3.03-.41-.17.96-1.17 2.32-1.48 3.3-.54.83-.84 1.39-1.49 2.72-.35.96-.83 2.91-.82 3.86 1.03-.02 2.36-.16 2.9-.92.52-.81 1.1-2.29 1.45-2.98.63-.58-.18.95-.21 1.99-.48 1.99-.8 3.89-.8 5.78-.17 1.81.38 2.12.58 3.59.08.34.13.26.26.79-.44-.77-2-3.05-2.93-4.45-.91-1.27.99-2.89-1-3.34-.8.17-.52.97-1.03.33-.52-1.21-2.21-3.6-2.61-3.9-.98-.74-2.8.75-2.68.87 1 1.02-.3-1.56 1.97 2.36 1.48 1.76-.65.72-.8.87-.72-1.96-.83-.51-1.26-1.05-1.13-.68-1.68-1.32-1.14.57zm6.02 6.27c.9-1.72.83-.67 1.38.23.33.54-.02.24-.4.42-.6.29-.75.42-.9.26-.56-.62-.25-.24-.08-.91zm-2.35-3.43c.55-.13.89-.22 1.29.28s-.61.97-.7.97c-.34-.32-.41-.89-.59-1.25z"/><path class="fil1" d="M64.42 43.25c-.68.27-.69.15-.26.94.34.56.04.41 1.43 1 .12.06.36.13.14-.55-.42-1.05-.17-.48-.56-1.09-.31-.41-.42-.33-.75-.3z"/><path class="fil2" d="M61.57 22.59c.53.17 1.37.7 1.9.87.8.4-.23 4.49.44 4.44.67-.05 2.89-3.74 3.06-4.45.08-.16 1.34-2.46-.59-2.55h-2.12c-.47-.02-.81-.26-1.68.61-.26.35-.79.68-1.01 1.08z"/></g></g></svg>